<svg width="134" height="95" viewBox="0 0 134 95" fill="none" xmlns="http://www.w3.org/2000/svg">
<path d="M15.0273 38.3749C22.3527 38.3749 27.1855 34.6036 27.1855 28.8448C27.1855 21.9139 21.4371 20.9966 17.0622 20.2322C14.4678 19.7735 12.3821 19.3658 12.3821 17.8369C12.3821 16.5629 13.3995 15.7984 14.9256 15.7984C16.6043 15.7984 17.7744 16.6138 17.7744 18.3465H26.6768C26.575 12.7916 21.9966 9.07135 15.0273 9.07135C8.00718 9.07135 3.2762 12.6387 3.2762 18.1427C3.2762 24.8188 8.92285 26.0929 13.196 26.8063C15.8413 27.214 17.927 27.6727 17.927 29.2526C17.927 30.6795 16.6043 31.393 15.2308 31.393C13.4504 31.393 12.026 30.4757 12.026 28.4371H2.9201C3.02184 34.3998 7.54934 38.3749 15.0273 38.3749Z" fill="white"/>
<path d="M46.2771 29.2016C44.2932 29.2016 43.0723 27.9785 43.0723 26.0419V17.2763H49.7363V9.93771H42.8688V1.93658H40.8848L28.5741 15.034V17.2763H33.6103V27.6217C33.6103 33.7373 37.3239 37.4575 43.3775 37.4575H49.8889V29.2016H46.2771Z" fill="white"/>
<path d="M72.8913 9.93771L67.4481 25.1246L61.598 9.93771H51.3221L62.6662 35.2152C61.3945 38.6297 60.3262 39.598 56.7144 39.598H54.0691V47.701H57.3248C64.4467 47.701 67.8042 44.6942 71.5178 36.2344L83.0654 9.93771H72.8913Z" fill="white"/>
<path d="M85.8693 37.4575H95.3313V0H85.8693V37.4575Z" fill="white"/>
<path d="M129.554 23.4428C129.554 15.3907 123.449 9.07135 114.598 9.07135C105.95 9.07135 99.6926 15.2888 99.6926 23.6976C99.6926 32.1065 106.001 38.3749 114.598 38.3749C121.465 38.3749 127.061 34.4507 128.994 28.1823H119.532C118.667 29.8131 116.785 30.7814 114.598 30.7814C111.596 30.7814 109.612 29.1506 109.002 25.9909H129.401C129.503 25.1246 129.554 24.3092 129.554 23.4428ZM114.598 16.5119C117.447 16.5119 119.43 17.9898 120.244 20.7418H109.155C109.918 17.9898 111.851 16.5119 114.598 16.5119Z" fill="white"/>
<path d="M32.3538 65.7984C28.9455 65.7984 25.8932 67.3273 23.9093 69.8245C22.1797 67.2763 19.3818 65.7984 16.0243 65.7984C12.8703 65.7984 9.97067 67.2254 7.98671 69.5696L6.66407 66.5629H0V94.0827H9.46197V78.9977C9.46197 75.5833 10.8863 73.7486 13.4299 73.7486C15.4138 73.7486 16.4821 75.2265 16.4821 78.0294V94.0827H25.6897V78.9977C25.6897 75.5323 27.0124 73.7486 29.6068 73.7486C31.6416 73.7486 32.659 75.1246 32.659 78.0294V94.0827H42.121V76.8573C42.121 70.3851 38.2548 65.7984 32.3538 65.7984Z" fill="white"/>
<path d="M69.9704 66.5629L69.0038 68.7033C66.7655 66.8177 63.8659 65.7475 60.6102 65.7475C52.2165 65.7475 46.2137 71.812 46.2137 80.3228C46.2137 88.8845 52.2165 95 60.6102 95C63.815 95 66.6638 93.9808 68.9021 92.1461L69.716 94.0827H77.0414V66.5629H69.9704ZM61.8819 86.6421C58.321 86.6421 55.7266 83.9411 55.7266 80.3228C55.7266 76.7554 58.321 74.1053 61.8819 74.1053C65.4429 74.1053 68.0373 76.7554 68.0373 80.3228C68.0373 83.9411 65.4429 86.6421 61.8819 86.6421Z" fill="white"/>
<path d="M97.9179 85.8267C95.9339 85.8267 94.7131 84.6036 94.7131 82.667V73.9015H101.377V66.5629H94.5096V58.5617H92.5256L80.2149 71.6591V73.9015H85.2511V84.2469C85.2511 90.3624 88.9647 94.0827 95.0183 94.0827H101.53V85.8267H97.9179Z" fill="white"/>
<path d="M134 80.068C134 72.0159 127.896 65.6965 119.044 65.6965C110.396 65.6965 104.139 71.9139 104.139 80.3228C104.139 88.7316 110.447 95 119.044 95C125.912 95 131.507 91.0759 133.44 84.8075H123.978C123.114 86.4383 121.231 87.4066 119.044 87.4066C116.043 87.4066 114.059 85.7758 113.448 82.6161H133.847C133.949 81.7497 134 80.9343 134 80.068ZM119.044 73.137C121.893 73.137 123.877 74.615 124.691 77.3669H113.601C114.364 74.615 116.297 73.137 119.044 73.137Z" fill="white"/>
</svg>
